<svg aria-hidden="true" style="position:absolute;width:0;height:0;overflow:hidden" xmlns="http://www.w3.org/2000/svg"><defs><symbol id="icon-icon-check" viewBox="0 0 34 32"><path d="M4.268.008h25.607a4.268 4.268 0 0 1 4.268 4.268v23.473a4.268 4.268 0 0 1-4.268 4.268H4.268A4.268 4.268 0 0 1 0 27.749V4.276A4.268 4.268 0 0 1 4.268.008z"/><path fill="#fff" style="fill:var(--color2, #fff);stroke:var(--color2, #fff)" stroke="#fff" stroke-width=".427" d="m8.444 16.55-.147-.141-.147.139-2.057 1.95.162.156 7.608 7.255.147-.141 16.175-15.431-.162-.154-2.029-1.935-.147.141-13.984 13.329-5.418-5.168z"/></symbol></defs></svg>