<svg aria-hidden="true" style="position:absolute;width:0;height:0;overflow:hidden" xmlns="http://www.w3.org/2000/svg"><defs><symbol id="icon-person" viewBox="0 0 32 32"><path d="M16.002 16.002a5.334 5.334 0 1 0 0-10.668 5.334 5.334 0 1 0 0 10.668zm0 2.667c-3.561 0-10.668 1.787-10.668 5.334v1.334c0 .733.599 1.334 1.333 1.334h18.669c.733 0 1.334-.601 1.334-1.334v-1.334c0-3.547-7.108-5.334-10.668-5.334z"/></symbol><symbol id="icon-phone" viewBox="0 0 32 32"><path d="m24.885 19.777-3.268-.373a2.556 2.556 0 0 0-2.111.732l-2.368 2.368c-3.67-1.894-6.586-4.811-8.428-8.373l-.051-.108 2.383-2.377a2.555 2.555 0 0 0 .731-2.123l.001.012-.373-3.243a2.578 2.578 0 0 0-2.557-2.276H6.615c-1.454 0-2.663 1.209-2.575 2.662.683 10.988 9.471 19.764 20.447 20.447 1.453.089 2.663-1.12 2.663-2.575v-2.238a2.55 2.55 0 0 0-2.253-2.533l-.012-.001z"/></symbol><symbol id="icon-email-b" viewBox="0 0 32 32"><path d="M26.67 5.334H5.334a2.663 2.663 0 0 0-2.653 2.667l-.014 16.002c0 1.467 1.2 2.667 2.667 2.667H26.67c1.467 0 2.667-1.2 2.667-2.667V8.001c0-1.467-1.2-2.667-2.667-2.667zm-.533 5.668-9.427 5.892a1.343 1.343 0 0 1-1.421-.004l.006.003-9.427-5.892a1.133 1.133 0 1 1 1.205-1.918l-.004-.003 8.934 5.586 8.934-5.588a1.133 1.133 0 1 1 1.206 1.918l-.005.003z"/></symbol><symbol id="icon-icon-check" viewBox="0 0 34 32"><path d="M4.268.008h25.607a4.268 4.268 0 0 1 4.268 4.268v23.473a4.268 4.268 0 0 1-4.268 4.268H4.268A4.268 4.268 0 0 1 0 27.749V4.276A4.268 4.268 0 0 1 4.268.008z"/><path stroke="#fff" stroke-width=".427" d="m8.444 16.55-.147-.141-.147.139-2.057 1.95.162.156 7.608 7.255.147-.141 16.175-15.431-.162-.154-2.029-1.935-.147.141-13.984 13.329-5.418-5.168z"/></symbol></defs></svg>